<svg xmlns="http://www.w3.org/2000/svg"  viewBox="0 0 50 50" width="50px" height="50px"><path d="M 25 1 C 16.179688 1 9 8.179688 9 17 C 9 25.496094 23.570313 46.664063 24.1875 47.5625 C 24.375 47.832031 24.671875 48 25 48 C 25.328125 48 25.625 47.832031 25.8125 47.5625 C 26.429688 46.664063 41 25.496094 41 17 C 41 8.179688 33.820313 1 25 1 Z M 25 9 C 29.417969 9 33 12.582031 33 17 C 33 21.417969 29.417969 25 25 25 C 20.582031 25 17 21.417969 17 17 C 17 12.582031 20.582031 9 25 9 Z M 25 13 C 22.789063 13 21 14.789063 21 17 C 21 19.210938 22.789063 21 25 21 C 27.210938 21 29 19.210938 29 17 C 29 16.4375 28.894531 15.921875 28.6875 15.4375 C 28.414063 15.785156 27.980469 16 27.5 16 C 26.671875 16 26 15.328125 26 14.5 C 26 14.019531 26.214844 13.585938 26.5625 13.3125 C 26.078125 13.105469 25.5625 13 25 13 Z"/></svg>